#!OML:ASF E:\Steps\Project 1\Capture day 1\Session 2\Subject.ASF
:FULLY-SPECIFIED
:DEGREES
1511
root 10.228 16.4219 5.48671 22.3711 -2.5508 0.627573
lowerback -26.1328 -1.54635 -5.34184
upperback -3.22632 -0.611085 0.863851
thorax 11.0135 -0.539114 3.84411
lowerneck 4.27921 3.59628 1.51498
upperneck 19.0063 4.20319 4.283
head 4.95914 2.38536 1.20396
rclavicle -6.25861e-015 -3.32964e-015
rhumerus -41.2254 -37.3205 -57.547
rradius 35.3747
rwrist -34.5495
rhand -5.70318 -68.2063
rfingers 7.12502
rthumb 20.1177 -262.815
lclavicle -6.25861e-015 -3.32964e-015
lhumerus -67.6178 61.1592 13.4559
lradius 14.2033
lwrist -10.6635
lhand -24.9032 0.540412
lfingers 7.12502
lthumb 1.60503 30.5141
rfemur -21.1881 6.22773 16.2027
rtibia 7.1693
rfoot -16.5387 -3.99777
rtoes -13.9737
lfemur -20.0647 -6.40503 -18.3909
ltibia 5.95671
lfoot -6.11912 -1.48589
ltoes -38.9467
1512
root 10.2256 16.4224 5.49465 22.4692 -2.60945 0.783897
lowerback -26.0296 -1.58409 -5.50804
upperback -3.22917 -0.619412 0.862437
thorax 10.9581 -0.54854 3.93534
lowerneck 3.91597 3.66599 1.43499
upperneck 19.2786 4.30829 4.1096
head 5.10438 2.42875 1.17872
rclavicle 1.70869e-015 1.40392e-015
rhumerus -44.5561 -40.3058 -52.7583
rradius 36.4513
rwrist -35.9653
rhand -4.87008 -67.367
rfingers 7.12502
rthumb 20.9182 -263.741
lclavicle 1.70869e-015 1.40392e-015
lhumerus -69.4516 60.0251 10.5912
lradius 15.3459
lwrist -5.18555
lhand -25.8902 0.840862
lfingers 7.12502
lthumb 0.651805 30.8196
rfemur -21.3604 6.17752 15.9973
rtibia 7.28106
rfoot -16.6643 -3.93304
rtoes -13.9106
lfemur -20.1507 -6.47431 -18.5509
ltibia 5.92596
lfoot -6.15692 -1.44427
ltoes -39.3435
1513
root 10.2218 16.4223 5.50716 22.4536 -2.61876 0.831921
lowerback -25.9626 -1.57974 -5.57597
upperback -3.16225 -0.597483 0.866603
thorax 10.9977 -0.544075 3.98701
lowerneck 4.09298 3.88396 0.848495
upperneck 18.7778 4.50317 4.9583
head 4.87718 2.52332 1.53057
rclavicle -7.89432e-015 7.86374e-015
rhumerus -48.3016 -43.3837 -47.4041
rradius 37.688
rwrist -37.5851
rhand -4.88723 -66.981
rfingers 7.12502
rthumb 20.9018 -264.125
lclavicle -7.89432e-015 7.86374e-015
lhumerus -70.6399 58.7273 8.41757
lradius 16.8042
lwrist 0.857356
lhand -26.7254 1.14412
lfingers 7.12502
lthumb -0.154919 31.1238
rfemur -21.3013 6.12827 15.9703
rtibia 7.20835
rfoot -16.6294 -3.90088
rtoes -13.8835
lfemur -20.06 -6.51094 -18.5955
ltibia 5.86939
lfoot -6.167 -1.45461
ltoes -38.81
1514
root 10.2206 16.4203 5.52396 22.4378 -2.4856 0.747884
lowerback -25.9343 -1.55988 -5.46804
upperback -3.03028 -0.606959 0.920443
thorax 11.1353 -0.552146 3.98282
lowerneck 3.76806 3.99123 0.536655
upperneck 18.7817 4.59819 5.28995
head 4.91127 2.57118 1.69437
rclavicle 2.72164e-015 2.44754e-015
rhumerus -52.3628 -46.1726 -41.7619
rradius 39.4301
rwrist -39.8141
rhand -6.2906 -67.6909
rfingers 7.12502
rthumb 19.553 -263.272
lclavicle 2.72164e-015 2.44754e-015
lhumerus -73.3642 58.1971 4.2922
lradius 18.1785
lwrist 5.38166
lhand -27.2888 1.19076
lfingers 7.12502
lthumb -0.699049 31.1694
rfemur -21.1553 5.98995 16.1426
rtibia 7.12315
rfoot -16.6136 -3.82135
rtoes -13.5517
lfemur -19.9681 -6.52685 -18.504
ltibia 5.87209
lfoot -6.23391 -1.57221
ltoes -38.2413
1515
root 10.2218 16.4186 5.53455 22.5065 -2.40485 0.682579
lowerback -25.8222 -1.59014 -5.39472
upperback -2.98719 -0.688442 1.04707
thorax 11.1353 -0.591245 4.05554
lowerneck 2.96346 3.95573 0.387712
upperneck 19.3953 4.55984 5.02743
head 5.23924 2.54414 1.66761
rclavicle 2.14315e-015 2.0773e-014
rhumerus -56.3379 -48.0694 -36.3628
rradius 41.7298
rwrist -42.914
rhand -8.49264 -68.4966
rfingers 7.12502
rthumb 17.4348 -262.265
lclavicle 2.14315e-015 2.0773e-014
lhumerus -75.3802 57.3772 1.1559
lradius 19.7559
lwrist 10.5403
lhand -27.9212 1.37194
lfingers 7.12502
lthumb -1.30976 31.3477
rfemur -21.2256 5.76798 16.2705
rtibia 7.23785
rfoot -16.712 -3.674
rtoes -13.9875
lfemur -20.0134 -6.66163 -18.4112
ltibia 5.91663
lfoot -6.32026 -1.51645
ltoes -38.4173
1516
root 10.2249 16.4162 5.5413 22.6422 -2.40974 0.684977
lowerback -25.6621 -1.61772 -5.37157
upperback -3.04999 -0.754893 1.15449
thorax 10.9871 -0.61843 4.14016
lowerneck 2.7497 4.04006 0.325053
upperneck 19.6911 4.72625 4.6377
head 5.37297 2.60295 1.57333
rclavicle 2.23633e-016 1.14301e-014
rhumerus -60.5529 -49.6471 -30.6628
rradius 44.1151
rwrist -45.9556
rhand -10.0807 -68.4752
rfingers 7.12502
rthumb 15.9059 -262.158
lclavicle 2.23633e-016 1.14301e-014
lhumerus -75.551 55.8221 0.390349
lradius 21.7858
lwrist 17.392
lhand -28.8814 1.96979
lfingers 7.12502
lthumb -2.23717 31.9378
rfemur -21.4303 5.5746 16.2713
rtibia 7.39448
rfoot -16.8091 -3.54147
rtoes -14.7862
lfemur -20.1336 -6.83276 -18.3967
ltibia 5.91624
lfoot -6.32033 -1.34406
ltoes -38.5786
1517
root 10.2238 16.4142 5.55577 22.6816 -2.45916 0.768936
lowerback -25.4695 -1.61886 -5.43159
upperback -3.14834 -0.754062 1.16309
thorax 10.7732 -0.612408 4.18378
lowerneck 2.59774 4.1541 0.199094
upperneck 19.8881 4.86598 4.71679
head 5.45103 2.67065 1.63148
rclavicle 5.44173e-015 1.00386e-014
rhumerus -65.7293 -51.5528 -23.6769
rradius 46.1925
rwrist -48.1301
rhand -11.1958 -68.1864
rfingers 7.12502
rthumb 14.8319 -262.364
lclavicle 5.44173e-015 1.00386e-014
lhumerus -77.5389 54.8237 -3.00131
lradius 23.5263
lwrist 22.0922
lhand -29.9124 2.59331
lfingers 7.12502
lthumb -3.23289 32.5485
rfemur -21.4036 5.62839 16.1498
rtibia 7.35311
rfoot -16.8103 -3.61172
rtoes -15.9274
lfemur -20.0705 -6.94308 -18.4839
ltibia 5.81101
lfoot -6.30605 -1.24771
ltoes -38.0668
1518
root 10.2169 16.4152 5.56982 22.7095 -2.51927 0.84263
lowerback -25.331 -1.60541 -5.57348
upperback -3.2282 -0.706804 1.15952
thorax 10.6046 -0.589261 4.27711
lowerneck 2.40489 4.25563 0.0517462
upperneck 20.081 4.96077 4.97505
head 5.52941 2.72664 1.74886
rclavicle 1.12251e-014 9.74045e-015
rhumerus -72.5254 -54.165 -14.5178
rradius 48.0692
rwrist -49.1677
rhand -11.8158 -67.6993
rfingers 7.12502
rthumb 14.2345 -262.808
lclavicle 1.12251e-014 9.74045e-015
lhumerus -83.9106 55.3221 -12.4632
lradius 24.5245
lwrist 22.1715
lhand -30.4441 2.78805
lfingers 7.12502
lthumb -3.74633 32.7349
rfemur -21.3439 5.98112 16.0037
rtibia 7.29071
rfoot -16.9523 -3.85729
rtoes -14.6376
lfemur -20.026 -6.97866 -18.5191
ltibia 5.75199
lfoot -6.30882 -1.18309
ltoes -37.6419
1519
root 10.213 16.4173 5.57763 22.8266 -2.51813 0.786827
lowerback -25.3497 -1.56859 -5.56474
upperback -3.21214 -0.666696 1.22035
thorax 10.6288 -0.572712 4.35485
lowerneck 2.21252 4.27589 -0.148375
upperneck 20.1657 4.97693 5.06756
head 5.57876 2.72913 1.81817
rclavicle -5.91384e-015 -6.16232e-015
rhumerus -79.1233 -56.0821 -5.72942
rradius 50.3253
rwrist -50.7824
rhand -11.7886 -67.0968
rfingers 7.12502
rthumb 14.2607 -263.413
lclavicle -5.91384e-015 -6.16232e-015
lhumerus -80.7183 53.4589 -9.49691
lradius 26.8479
lwrist 29.5505
lhand -32.3269 3.40238
lfingers 7.12502
lthumb -5.56436 33.3093
rfemur -21.4431 6.13808 16.042
rtibia 7.37356
rfoot -17.0455 -3.91893
rtoes -14.0861
lfemur -20.1444 -6.91765 -18.4209
ltibia 5.80149
lfoot -6.31993 -1.19541
ltoes -37.7816
